<svg width="24" height="24" viewBox="0 0 24 24" fill="none" xmlns="http://www.w3.org/2000/svg">
<path d="M18.9994 4.17529C19.1946 3.98017 19.5112 3.98022 19.7065 4.17529L20.1137 4.58251C20.3087 4.77772 20.3086 5.09434 20.1137 5.28955L13.2543 12.1479L20.1137 19.0063C20.3088 19.2015 20.3085 19.5181 20.1137 19.7134L19.7065 20.1206C19.5112 20.3159 19.1947 20.3159 18.9994 20.1206L12.14 13.2612L5.28165 20.1206C5.08637 20.3159 4.76986 20.3159 4.57462 20.1206L4.16739 19.7134C3.97249 19.5181 3.97225 19.2015 4.16739 19.0063L11.0258 12.1479L4.16739 5.28955C3.97239 5.09432 3.97233 4.77773 4.16739 4.58251L4.57462 4.17529C4.76987 3.98026 5.08645 3.98013 5.28165 4.17529L12.14 11.0337L18.9994 4.17529Z" fill="#A9ABB7"/>
</svg>