<svg width="150" height="150" viewBox="0 0 150 150" fill="none" xmlns="http://www.w3.org/2000/svg">
<rect width="150" height="150" fill="#F6F6F6"/>
<path opacity="0.0572699" d="M83.1663 73.97C83.845 73.9759 84.4594 74.2982 84.8508 74.8528L90.3879 82.6985V83.6028L90.3967 84.4202C90.404 85.1091 90.1412 85.7586 89.6565 86.2483C89.1719 86.7382 88.5253 87.0082 87.8362 87.0081H62.1633C60.7517 87.008 59.603 85.8591 59.6028 84.4475V83.7717L65.2581 80.0491C65.9598 79.5875 66.8646 79.5908 67.5627 80.0579L71.301 82.5598C72.9941 83.6926 75.2631 83.2933 76.467 81.6497L81.467 74.8225C81.8644 74.28 82.4764 73.97 83.1477 73.97C83.1539 73.97 83.1602 73.9699 83.1663 73.97ZM87.8274 62.9924C89.2391 62.9924 90.3877 64.1404 90.3879 65.552V79.7375L86.2454 73.8684C85.5334 72.8596 84.4167 72.2749 83.1819 72.2639C83.1702 72.2637 83.1584 72.2629 83.1467 72.2629C81.9256 72.2629 80.8129 72.8269 80.0901 73.8137L75.0901 80.6409C74.4285 81.5441 73.181 81.7645 72.2502 81.1418L68.512 78.6399C67.2418 77.7899 65.5962 77.7838 64.3196 78.6243L59.6028 81.7288V65.552C59.603 64.1404 60.7517 62.9925 62.1633 62.9924H87.8274ZM71.4612 66.1848C68.9637 66.1848 66.9319 68.2176 66.9319 70.7151C66.9321 73.2123 68.9638 75.2444 71.4612 75.2444C73.9584 75.2442 75.9903 73.2123 75.9905 70.7151C75.9905 68.2177 73.9586 66.185 71.4612 66.1848ZM71.4612 67.8918C73.0173 67.8921 74.2834 69.159 74.2834 70.7151C74.2833 72.2711 73.0172 73.5371 71.4612 73.5374C69.905 73.5374 68.6382 72.2712 68.6379 70.7151C68.6379 69.1588 69.9049 67.8918 71.4612 67.8918Z" fill="black"/>
</svg>
