<svg width="32" height="32" viewBox="0 0 32 32" fill="none" xmlns="http://www.w3.org/2000/svg">
<g filter="url(#filter0_d_1383_1162)">
<path d="M20 2C24.4183 2 28 5.58172 28 10V18C28 22.4183 24.4183 26 20 26H12C7.58172 26 4 22.4183 4 18V10C4 5.58172 7.58172 2 12 2H20ZM21.1025 8.15625C20.9074 7.96103 20.5908 7.96129 20.3955 8.15625L15.999 12.5508L11.6045 8.15625C11.4094 7.96113 11.0927 7.96138 10.8975 8.15625L10.1553 8.89746C9.96021 9.09261 9.96043 9.40923 10.1553 9.60449L14.5508 13.999L10.1553 18.3945C9.96024 18.5897 9.96045 18.9063 10.1553 19.1016L10.8975 19.8438C11.0927 20.0387 11.4093 20.0389 11.6045 19.8438L15.999 15.4482L20.3955 19.8438C20.5908 20.0387 20.9074 20.039 21.1025 19.8438L21.8438 19.1016C22.0385 18.9063 22.0387 18.5896 21.8438 18.3945L17.4482 13.999L21.8438 9.60449C22.0385 9.40928 22.0386 9.09259 21.8438 8.89746L21.1025 8.15625Z" fill="white"/>
</g>
<defs>
<filter id="filter0_d_1383_1162" x="0" y="0" width="32" height="32" filterUnits="userSpaceOnUse" color-interpolation-filters="sRGB">
<feFlood flood-opacity="0" result="BackgroundImageFix"/>
<feColorMatrix in="SourceAlpha" type="matrix" values="0 0 0 0 0 0 0 0 0 0 0 0 0 0 0 0 0 0 127 0" result="hardAlpha"/>
<feOffset dy="2"/>
<feGaussianBlur stdDeviation="2"/>
<feColorMatrix type="matrix" values="0 0 0 0 0 0 0 0 0 0 0 0 0 0 0 0 0 0 0.282836 0"/>
<feBlend mode="normal" in2="BackgroundImageFix" result="effect1_dropShadow_1383_1162"/>
<feBlend mode="normal" in="SourceGraphic" in2="effect1_dropShadow_1383_1162" result="shape"/>
</filter>
</defs>
</svg>
