<svg width="67" height="19" viewBox="0 0 67 19" fill="none" xmlns="http://www.w3.org/2000/svg">
<path fill-rule="evenodd" clip-rule="evenodd" d="M47.885 17.006C47.131 17.968 45.753 18.514 44.349 18.514C41.125 18.514 38.915 16.226 38.915 12.95C38.915 9.83 41.151 7.412 44.323 7.412C45.675 7.412 47.027 7.802 47.885 8.894V3.46H46.065V1.458H50.225V18.202H47.989L47.885 17.006ZM6.16547 12.066V18.202H3.79947V5.618H2.23947V3.616H13.0555V7.36H10.9495V5.618H6.16547V10.116H11.2875V12.066H6.16547ZM24.5706 12.95C24.5706 15.966 22.1266 18.54 18.7986 18.54C15.4966 18.54 13.0526 15.966 13.0526 12.95C13.0526 9.934 15.4966 7.412 18.7986 7.412C22.1266 7.412 24.5706 9.934 24.5706 12.95ZM18.7986 16.382C16.8486 16.382 15.3926 15.03 15.3926 12.95C15.3926 10.766 16.9786 9.544 18.7986 9.544C20.6186 9.544 22.2046 10.766 22.2046 12.95C22.2046 15.03 20.6446 16.382 18.7986 16.382ZM37.5018 12.95C37.5018 15.966 35.0578 18.54 31.7298 18.54C28.4278 18.54 25.9838 15.966 25.9838 12.95C25.9838 9.934 28.4278 7.412 31.7298 7.412C35.0578 7.412 37.5018 9.934 37.5018 12.95ZM31.7298 16.382C29.7798 16.382 28.3238 15.03 28.3238 12.95C28.3238 10.766 29.9098 9.544 31.7298 9.544C33.5498 9.544 35.1358 10.766 35.1358 12.95C35.1358 15.03 33.5758 16.382 31.7298 16.382ZM44.609 16.434C42.685 16.434 41.255 15.03 41.255 12.924C41.255 10.844 42.633 9.492 44.609 9.492C46.897 9.492 47.989 11.104 47.989 12.95C47.989 14.692 46.897 16.434 44.609 16.434ZM56.1622 4.162C56.1622 5.046 55.5382 5.722 54.6022 5.722C53.7182 5.722 53.0682 4.994 53.0682 4.162C53.0682 3.226 53.6662 2.628 54.6022 2.628C55.5122 2.628 56.1622 3.408 56.1622 4.162ZM55.9802 7.698H51.8462V9.7H53.6402V18.202H55.9802V7.698ZM65.3494 18.02C64.8034 18.332 63.9454 18.514 63.0874 18.514C60.8254 18.514 59.7854 17.37 59.7854 14.9V9.7H57.6014V7.698H59.7854V4.136H62.1254V7.698H65.0634V9.7H62.1254V14.484C62.1254 15.862 62.5674 16.382 63.5034 16.382C63.9974 16.382 64.5694 16.226 64.8814 16.018C64.9958 16.4269 65.0897 16.8563 65.1825 17.2805C65.2372 17.5306 65.2915 17.7789 65.3494 18.02Z" fill="white"/>
</svg>
